#!OML:ASF F:\VICON\USERDATA\INSTALL\rory3\rory3.ASF
:FULLY-SPECIFIED
:DEGREES
336
root 1.06963 19.3118 -8.66409 168.247 -45.9315 187.151
lowerback 18.4979 -1.23139 1.27663
upperback -1.65735 -1.05298 3.47205
thorax -12.2471 -0.478291 3.44966
lowerneck 4.37548 -14.22 -8.49643
upperneck -6.02258 -19.2441 6.33936
head -1.1746 -9.62887 3.65559
rclavicle -1.26974e-014 4.53229e-014
rhumerus 51.7123 -8.98668 -52.1426
rradius 30.0033
rwrist 32.353
rhand 2.65672 3.179
rfingers 7.12502
rthumb 28.1325 -24.7306
lclavicle -1.26974e-014 4.53229e-014
lhumerus 64.1908 -16.7402 65.2116
lradius 75.438
lwrist 39.2859
lhand -17.9025 53.4754
lfingers 7.12502
lthumb 8.36441 83.2898
rfemur -4.77707 -3.71964 26.9556
rtibia 30.1842
rfoot 14.5413 -13.5441
rtoes 13.9771
lfemur -7.28131 -10.7311 -12.8114
ltibia 30.13
lfoot 21.4119 -7.10229
ltoes -2.61251
337
root 1.06764 19.3055 -8.65791 167.996 -45.8262 187.407
lowerback 18.5009 -1.24674 1.53188
upperback -1.78885 -1.0126 3.42895
thorax -12.407 -0.474874 3.24993
lowerneck 4.79397 -14.2168 -8.2468
upperneck -5.91987 -19.2604 6.15436
head -1.25545 -9.63827 3.59743
rclavicle -2.15433e-014 -5.12864e-014
rhumerus 50.0728 -8.37083 -52.3082
rradius 31.2457
rwrist 32.5855
rhand 1.84681 3.55509
rfingers 7.12502
rthumb 27.3581 -24.4793
lclavicle -2.15433e-014 -5.12864e-014
lhumerus 62.816 -17.0929 65.4833
lradius 76.241
lwrist 38.8131
lhand -18.9706 53.237
lfingers 7.12502
lthumb 7.33355 83.0899
rfemur -4.44078 -3.59555 27.1591
rtibia 29.6647
rfoot 14.8584 -13.4648
rtoes 13.4375
lfemur -7.34199 -10.6764 -12.6538
ltibia 30.503
lfoot 20.6533 -7.64949
ltoes -4.49528
338
root 1.06333 19.2927 -8.64801 168.202 -45.8222 187.108
lowerback 18.3258 -1.22041 1.32464
upperback -1.82133 -1.02858 3.39652
thorax -12.3379 -0.468325 3.33021
lowerneck 5.18863 -14.1766 -7.99727
upperneck -6.23054 -19.2266 5.94845
head -1.47466 -9.6176 3.55927
rclavicle 1.25483e-013 1.19271e-015
rhumerus 48.6946 -7.72524 -52.1665
rradius 32.435
rwrist 32.6665
rhand 0.682139 4.09965
rfingers 7.12502
rthumb 26.2436 -24.1056
lclavicle 1.25483e-013 1.19271e-015
lhumerus 61.4858 -17.2188 65.7853
lradius 77.029
lwrist 38.4225
lhand -19.1037 53.0641
lfingers 7.12502
lthumb 7.20505 82.9214
rfemur -4.33789 -3.59133 26.8973
rtibia 29.5679
rfoot 14.8587 -13.0871
rtoes 13.244
lfemur -7.27099 -10.7789 -12.9636
ltibia 30.6039
lfoot 19.8078 -7.78786
ltoes -4.89211
339
root 1.06417 19.2809 -8.64955 168.169 -45.7006 187.046
lowerback 18.0967 -1.13778 1.08404
upperback -1.743 -0.974502 3.49338
thorax -12.1116 -0.427573 3.54796
lowerneck 5.34004 -14.1749 -7.78985
upperneck -6.36621 -19.2337 5.66644
head -1.59484 -9.61446 3.46761
rclavicle 6.80589e-014 -1.78906e-014
rhumerus 47.2665 -6.71339 -51.0845
rradius 33.8775
rwrist 31.5006
rhand -0.609306 4.51024
rfingers 7.12502
rthumb 25.0066 -23.8731
lclavicle 6.80589e-014 -1.78906e-014
lhumerus 60.153 -17.2602 66.1965
lradius 78.0824
lwrist 38.1672
lhand -18.8589 53.1305
lfingers 7.12502
lthumb 7.44137 82.9796
rfemur -4.21006 -3.25259 26.9589
rtibia 29.669
rfoot 14.1321 -13.2919
rtoes 14.5219
lfemur -7.04647 -10.7123 -13.0157
ltibia 30.6536
lfoot 18.7931 -8.01577
ltoes -5.07383
340
root 1.06596 19.2605 -8.6555 168.009 -45.4142 187.123
lowerback 17.8952 -0.979136 0.922264
upperback -1.64248 -0.799775 3.61668
thorax -11.8852 -0.336256 3.71743
lowerneck 5.39544 -14.3198 -7.32064
upperneck -6.31345 -19.4262 5.06774
head -1.68142 -9.69984 3.21897
rclavicle -2.9122e-014 -1.07344e-014
rhumerus 45.5234 -5.69187 -49.7836
rradius 35.8188
rwrist 30.3903
rhand -1.34459 4.45476
rfingers 7.12502
rthumb 24.3019 -24.0248
lclavicle -2.9122e-014 -1.07344e-014
lhumerus 58.8246 -17.4482 66.6452
lradius 79.3348
lwrist 37.9251
lhand -19.063 53.2869
lfingers 7.12502
lthumb 7.24431 83.1429
rfemur -4.05673 -2.6996 27.2027
rtibia 29.8251
rfoot 12.934 -13.5334
rtoes 14.5298
lfemur -6.75782 -10.5146 -12.9161
ltibia 30.7728
lfoot 17.5501 -8.33733
ltoes -5.16319
341
root 1.05952 19.2297 -8.64619 167.935 -45.1071 187.262
lowerback 17.688 -0.914477 1.11772
upperback -1.62354 -0.675784 3.67438
thorax -11.7521 -0.292416 3.62738
lowerneck 5.56978 -14.3299 -7.4048
upperneck -6.23643 -19.4549 5.07591
head -1.6755 -9.71395 3.24497
rclavicle -3.96078e-014 -1.59028e-014
rhumerus 43.6522 -4.66577 -48.8504
rradius 37.7777
rwrist 29.7975
rhand -2.39339 4.43248
rfingers 7.12502
rthumb 23.296 -24.1781
lclavicle -3.96078e-014 -1.59028e-014
lhumerus 57.3127 -17.622 66.9181
lradius 80.4903
lwrist 37.5363
lhand -18.4925 54.0426
lfingers 7.12502
lthumb 7.79497 83.8789
rfemur -4.0126 -2.57275 27.3607
rtibia 29.9479
rfoot 12.0738 -12.8381
rtoes 11.9619
lfemur -6.63874 -10.4482 -12.8324
ltibia 30.979
lfoot 16.0489 -8.66503
ltoes -6.49837
342
root 1.05203 19.1946 -8.63034 167.79 -44.8654 187.481
lowerback 17.5398 -0.948626 1.46491
upperback -1.64207 -0.652921 3.68484
thorax -11.6922 -0.305872 3.42987
lowerneck 5.71133 -14.1981 -7.64788
upperneck -6.08137 -19.2959 5.24405
head -1.61862 -9.63779 3.33618
rclavicle 8.54526e-014 3.97569e-015
rhumerus 41.8621 -3.65297 -48.4798
rradius 39.2876
rwrist 28.6861
rhand -4.59664 5.5222
rfingers 7.12502
rthumb 21.1809 -23.3407
lclavicle 8.54526e-014 3.97569e-015
lhumerus 55.6649 -17.7573 66.9964
lradius 81.613
lwrist 37.1832
lhand -17.6387 53.4409
lfingers 7.12502
lthumb 8.61902 83.245
rfemur -3.92557 -2.60718 27.5407
rtibia 30.1016
rfoot 12.4223 -10.1322
rtoes 0.376841
lfemur -6.51662 -10.7627 -12.7551
ltibia 31.1914
lfoot 14.6576 -8.4798
ltoes -6.99595
343
root 1.04352 19.1571 -8.60945 167.794 -44.816 187.436
lowerback 17.5224 -1.04246 1.69209
upperback -1.69619 -0.733669 3.61344
thorax -11.7434 -0.35975 3.24417
lowerneck 5.72103 -14.1331 -8.15301
upperneck -5.23063 -19.2308 5.52564
head -1.26636 -9.617 3.43987
rclavicle 1.11518e-013 -1.43125e-014
rhumerus 40.1087 -2.56731 -48.3156
rradius 41.0451
rwrist 27.9233
rhand -5.96235 6.05633
rfingers 7.12502
rthumb 19.8686 -22.9481
lclavicle 1.11518e-013 -1.43125e-014
lhumerus 53.9431 -17.9644 67.1933
lradius 82.7713
lwrist 36.5741
lhand -17.1625 53.0847
lfingers 7.12502
lthumb 9.07851 82.8693
rfemur -3.87951 -2.65355 27.4879
rtibia 30.4448
rfoot 11.5203 -8.96503
rtoes -5.52224
lfemur -6.31471 -11.22 -12.9281
ltibia 31.2764
lfoot 13.5979 -7.83406
ltoes -5.25123
344
root 1.03671 19.1179 -8.59418 168.027 -44.8088 187.06
lowerback 17.1447 -1.04618 1.36535
upperback -1.51409 -0.828384 3.63943
thorax -11.3085 -0.388786 3.46268
lowerneck 5.57681 -13.8439 -8.97403
upperneck -4.79319 -18.8679 6.26259
head -0.970006 -9.45055 3.75482
rclavicle 4.27387e-015 2.74323e-014
rhumerus 38.7065 -1.68214 -48.1641
rradius 42.8088
rwrist 27.0792
rhand -7.174 6.65664
rfingers 7.12502
rthumb 18.7035 -22.4642
lclavicle 4.27387e-015 2.74323e-014
lhumerus 52.4417 -17.984 67.3347
lradius 83.9494
lwrist 35.8655
lhand -17.3341 53.1716
lfingers 7.12502
lthumb 8.91293 82.9633
rfemur -4.0179 -2.6414 27.2234
rtibia 31.2618
rfoot 10.3665 -7.93618
rtoes -12.3155
lfemur -5.95021 -11.4525 -13.3277
ltibia 31.0305
lfoot 12.6468 -7.4896
ltoes -4.14513
